<svg xmlns="http://www.w3.org/2000/svg" viewBox="0 0 240 56" fill="none" role="img" aria-label="Rutafy">
  <rect x="0" y="4" width="48" height="48" rx="12" fill="#111827"/>
  <path d="M14 40V16h9.5c5.2 0 8 2.6 8 6.6 0 3.4-2.1 5.6-5.4 6.3L36 40h-7.4l-7-5.5H20v5.5H14z" stroke="#86EFAC" stroke-width="2.4" stroke-linecap="round" stroke-linejoin="round"/>
  <path d="M20 16v24M20 22h7.4c2.6 0 4.1-1.3 4.1-3.4S29.9 16 27.3 16H20" stroke="#F8FAFC" stroke-width="1.8" stroke-linecap="round"/>
  <path d="M32.5 14.5c0 3.2-2.6 5.8-5.8 5.8S20.9 17.7 20.9 14.5s2.6-5.8 5.8-5.8 5.8 2.6 5.8 5.8z" fill="#16A34A"/>
  <circle cx="26.7" cy="14.5" r="1.6" fill="#FFFFFF"/>
  <text x="60" y="34" fill="#F8FAFC" font-family="Plus Jakarta Sans, system-ui, sans-serif" font-size="24" font-weight="700">Rutafy</text>
  <text x="60" y="48" fill="#86EFAC" font-family="Plus Jakarta Sans, system-ui, sans-serif" font-size="11" font-weight="500">Logística operativa</text>
</svg>
